<svg width="167" height="33" viewBox="0 0 167 33" fill="none" xmlns="http://www.w3.org/2000/svg">
<path fill-rule="evenodd" clip-rule="evenodd" d="M8.64941 0H18.6934L14.1445 4.54882H8.64941C8.11187 4.54808 7.57947 4.65354 7.08279 4.85915C6.58612 5.06475 6.13495 5.36644 5.75521 5.7469C5.37475 6.12665 5.07305 6.57782 4.86745 7.07449C4.66185 7.57116 4.55639 8.10356 4.55713 8.64111V27.4756H23.3805C23.9193 27.4784 24.4533 27.3747 24.9519 27.1706C25.4505 26.9664 25.9038 26.6657 26.2858 26.2858C26.6662 25.9054 26.9679 25.4538 27.1735 24.9567C27.3791 24.4596 27.4845 23.9268 27.4839 23.3888V19.8831L32.0327 15.3343V23.3805C32.0312 24.5153 31.8061 25.6387 31.3703 26.6865C30.9344 27.7343 30.2964 28.686 29.4927 29.4871V29.5009C27.8784 31.1169 25.6895 32.0273 23.4054 32.0327H3.48356C2.56676 32.0314 1.68799 31.6661 1.04036 31.0172C0.71302 30.6969 0.452507 30.3147 0.273921 29.893C0.0953363 29.4712 0.0022307 29.0182 0 28.5602V8.63835C0.00606937 6.35274 0.919732 4.16313 2.54004 2.5511L2.55387 2.53727C4.16715 0.919509 6.35642 0.00797509 8.64111 0.00276542L8.64941 0ZM14.4489 14.186L18.876 18.6131L15.279 19.7199C12.4705 20.5859 12.4844 21.1642 13.248 18.4609L14.4489 14.1999V14.186Z" fill="url(#paint0_linear_2036_7)"/>
<path d="M43.2014 23.7211V6.34207H47.4019V20.3097H54.6318V23.7211H43.2014Z" fill="white"/>
<path d="M56.8063 23.7211V10.6868H60.9559V23.7211H56.8063ZM58.8853 9.16785C58.3027 9.16785 57.802 8.9755 57.3834 8.59081C56.9647 8.20046 56.7554 7.73091 56.7554 7.18216C56.7554 6.63907 56.9647 6.17518 57.3834 5.79049C57.802 5.40014 58.3027 5.20496 58.8853 5.20496C59.4737 5.20496 59.9744 5.40014 60.3873 5.79049C60.806 6.17518 61.0153 6.63907 61.0153 7.18216C61.0153 7.73091 60.806 8.20046 60.3873 8.59081C59.9744 8.9755 59.4737 9.16785 58.8853 9.16785Z" fill="white"/>
<path d="M63.6311 23.7211V21.3535L69.673 13.9963V13.9114H63.8432V10.6868H74.6202V13.2835L69.0196 20.4116V20.4964H74.8239V23.7211H63.6311Z" fill="white"/>
<path d="M82.6393 23.7211V6.34207H89.8862C91.1874 6.34207 92.2764 6.52592 93.1533 6.89364C94.0358 7.26136 94.6977 7.77617 95.1389 8.43807C95.5859 9.09996 95.8093 9.86651 95.8093 10.7377C95.8093 11.3996 95.6707 11.9908 95.3935 12.5113C95.1163 13.0261 94.7345 13.4532 94.2479 13.7926C93.7614 14.1321 93.1985 14.3697 92.5593 14.5054V14.6752C93.2608 14.7091 93.9085 14.8986 94.5025 15.2437C95.1022 15.5888 95.583 16.0697 95.9451 16.6863C96.3072 17.2973 96.4882 18.0214 96.4882 18.8587C96.4882 19.7921 96.2506 20.6266 95.7754 21.362C95.3002 22.0918 94.6128 22.6688 93.7133 23.0931C92.8138 23.5117 91.722 23.7211 90.4378 23.7211H82.6393ZM86.8398 20.3352H89.4365C90.3473 20.3352 91.0177 20.1627 91.4476 19.8176C91.8832 19.4725 92.101 18.9916 92.101 18.375C92.101 17.9281 91.9964 17.5434 91.787 17.2209C91.5777 16.8928 91.2807 16.641 90.896 16.4657C90.5113 16.2846 90.0503 16.1941 89.5128 16.1941H86.8398V20.3352ZM86.8398 13.4871H89.1649C89.6232 13.4871 90.0305 13.4108 90.3869 13.258C90.7433 13.1053 91.0205 12.8846 91.2185 12.5961C91.4222 12.3076 91.524 11.9597 91.524 11.5524C91.524 10.9697 91.3175 10.5114 90.9045 10.1777C90.4915 9.84389 89.9343 9.677 89.2328 9.677H86.8398V13.4871Z" fill="white"/>
<path d="M102.182 23.9417C101.351 23.9417 100.612 23.8031 99.9674 23.5259C99.3281 23.243 98.8218 22.8187 98.4484 22.253C98.0807 21.6816 97.8968 20.966 97.8968 20.1061C97.8968 19.382 98.0241 18.771 98.2787 18.2731C98.5333 17.7753 98.884 17.3708 99.3309 17.0597C99.7779 16.7485 100.293 16.5138 100.875 16.3553C101.458 16.1913 102.08 16.081 102.742 16.0244C103.483 15.9565 104.08 15.8858 104.533 15.8123C104.985 15.7331 105.313 15.6227 105.517 15.4813C105.726 15.3342 105.831 15.1277 105.831 14.8618V14.8194C105.831 14.3838 105.681 14.0472 105.381 13.8096C105.082 13.572 104.677 13.4532 104.168 13.4532C103.619 13.4532 103.178 13.572 102.844 13.8096C102.51 14.0472 102.298 14.3753 102.208 14.794L98.3805 14.6582C98.4937 13.8662 98.785 13.159 99.2546 12.5367C99.7298 11.9088 100.38 11.4166 101.206 11.0602C102.038 10.6981 103.036 10.5171 104.202 10.5171C105.033 10.5171 105.8 10.6161 106.501 10.8141C107.203 11.0064 107.814 11.2893 108.334 11.6627C108.855 12.0304 109.257 12.483 109.539 13.0204C109.828 13.5579 109.972 14.1717 109.972 14.8618V23.7211H106.069V21.9051H105.967C105.735 22.3463 105.438 22.7197 105.076 23.0252C104.719 23.3307 104.298 23.5598 103.811 23.7126C103.331 23.8653 102.788 23.9417 102.182 23.9417ZM103.464 21.2262C103.91 21.2262 104.312 21.1357 104.669 20.9547C105.031 20.7736 105.319 20.5247 105.534 20.2079C105.749 19.8855 105.857 19.5121 105.857 19.0878V17.8489C105.738 17.9111 105.593 17.9677 105.424 18.0186C105.26 18.0695 105.079 18.1176 104.881 18.1628C104.683 18.2081 104.479 18.2477 104.27 18.2816C104.06 18.3156 103.86 18.3467 103.667 18.375C103.277 18.4372 102.943 18.5334 102.666 18.6635C102.394 18.7936 102.185 18.9633 102.038 19.1726C101.897 19.3763 101.826 19.6196 101.826 19.9024C101.826 20.3324 101.979 20.6605 102.284 20.8868C102.595 21.1131 102.988 21.2262 103.464 21.2262Z" fill="white"/>
<path d="M123.889 14.6667L120.079 14.7685C120.039 14.497 119.932 14.2565 119.756 14.0472C119.581 13.8322 119.352 13.6653 119.069 13.5465C118.792 13.4221 118.469 13.3598 118.102 13.3598C117.621 13.3598 117.211 13.456 116.871 13.6484C116.537 13.8407 116.373 14.1009 116.379 14.4291C116.373 14.6836 116.475 14.9043 116.684 15.091C116.899 15.2776 117.281 15.4276 117.83 15.5407L120.342 16.0159C121.643 16.2648 122.61 16.6778 123.244 17.2548C123.883 17.8319 124.206 18.5956 124.211 19.546C124.206 20.4399 123.94 21.2177 123.414 21.8796C122.893 22.5415 122.18 23.0563 121.275 23.424C120.37 23.7861 119.335 23.9671 118.169 23.9671C116.308 23.9671 114.84 23.5853 113.765 22.8216C112.696 22.0522 112.085 21.0226 111.932 19.7327L116.031 19.6309C116.122 20.1061 116.356 20.4681 116.735 20.7171C117.114 20.966 117.598 21.0904 118.186 21.0904C118.718 21.0904 119.151 20.9914 119.485 20.7934C119.819 20.5954 119.988 20.3324 119.994 20.0043C119.988 19.7101 119.858 19.4753 119.604 19.2999C119.349 19.1189 118.95 18.9775 118.407 18.8756L116.133 18.4429C114.826 18.2053 113.853 17.7668 113.214 17.1276C112.575 16.4826 112.258 15.6623 112.263 14.6667C112.258 13.7955 112.49 13.0515 112.959 12.4349C113.429 11.8126 114.096 11.3374 114.962 11.0093C115.827 10.6812 116.849 10.5171 118.025 10.5171C119.79 10.5171 121.182 10.8876 122.2 11.6287C123.219 12.3642 123.781 13.3768 123.889 14.6667Z" fill="white"/>
<path d="M137.634 14.6667L133.824 14.7685C133.784 14.497 133.677 14.2565 133.501 14.0472C133.326 13.8322 133.097 13.6653 132.814 13.5465C132.537 13.4221 132.214 13.3598 131.847 13.3598C131.366 13.3598 130.956 13.456 130.616 13.6484C130.282 13.8407 130.118 14.1009 130.124 14.4291C130.118 14.6836 130.22 14.9043 130.429 15.091C130.644 15.2776 131.026 15.4276 131.575 15.5407L134.087 16.0159C135.388 16.2648 136.355 16.6778 136.989 17.2548C137.628 17.8319 137.951 18.5956 137.956 19.546C137.951 20.4399 137.685 21.2177 137.159 21.8796C136.638 22.5415 135.925 23.0563 135.02 23.424C134.115 23.7861 133.08 23.9671 131.914 23.9671C130.053 23.9671 128.585 23.5853 127.51 22.8216C126.441 22.0522 125.83 21.0226 125.677 19.7327L129.776 19.6309C129.867 20.1061 130.101 20.4681 130.48 20.7171C130.859 20.966 131.343 21.0904 131.931 21.0904C132.463 21.0904 132.896 20.9914 133.23 20.7934C133.563 20.5954 133.733 20.3324 133.739 20.0043C133.733 19.7101 133.603 19.4753 133.349 19.2999C133.094 19.1189 132.695 18.9775 132.152 18.8756L129.878 18.4429C128.571 18.2053 127.598 17.7668 126.959 17.1276C126.319 16.4826 126.003 15.6623 126.008 14.6667C126.003 13.7955 126.235 13.0515 126.704 12.4349C127.174 11.8126 127.841 11.3374 128.707 11.0093C129.572 10.6812 130.593 10.5171 131.77 10.5171C133.535 10.5171 134.927 10.8876 135.945 11.6287C136.963 12.3642 137.526 13.3768 137.634 14.6667Z" fill="white"/>
<path d="M146.092 23.9671C144.729 23.9671 143.552 23.6984 142.562 23.161C141.578 22.6179 140.82 21.8457 140.288 20.8444C139.762 19.8374 139.499 18.6409 139.499 17.2548C139.499 15.9084 139.765 14.7317 140.296 13.7247C140.828 12.7121 141.578 11.9257 142.545 11.3657C143.512 10.8 144.652 10.5171 145.965 10.5171C146.893 10.5171 147.741 10.6614 148.511 10.9499C149.28 11.2384 149.945 11.6655 150.505 12.2312C151.065 12.797 151.5 13.4956 151.812 14.3272C152.123 15.1532 152.278 16.1008 152.278 17.17V18.2053H140.95V15.7953H148.417C148.412 15.354 148.307 14.9608 148.103 14.6158C147.9 14.2707 147.62 14.0019 147.263 13.8096C146.912 13.6116 146.508 13.5126 146.05 13.5126C145.586 13.5126 145.17 13.6173 144.802 13.8266C144.435 14.0302 144.143 14.3103 143.928 14.6667C143.713 15.0174 143.6 15.4162 143.589 15.8632V18.3156C143.589 18.8474 143.693 19.3141 143.903 19.7157C144.112 20.1117 144.409 20.4201 144.794 20.6407C145.178 20.8613 145.637 20.9716 146.169 20.9716C146.536 20.9716 146.87 20.9207 147.17 20.8189C147.47 20.7171 147.727 20.5671 147.942 20.3691C148.157 20.1711 148.318 19.9279 148.426 19.6394L152.236 19.7497C152.077 20.6039 151.73 21.3478 151.192 21.9815C150.66 22.6094 149.962 23.0988 149.096 23.4495C148.231 23.7946 147.229 23.9671 146.092 23.9671Z" fill="white"/>
<path d="M156.585 28.6089C156.087 28.6089 155.617 28.5693 155.176 28.4901C154.735 28.4165 154.356 28.3175 154.039 28.1931L154.956 25.1806C155.363 25.3164 155.731 25.3956 156.059 25.4182C156.393 25.4408 156.678 25.3871 156.916 25.257C157.159 25.1325 157.346 24.9091 157.476 24.5866L157.637 24.1963L153.004 10.6868H157.349L159.75 19.9873H159.886L162.321 10.6868H166.691L161.778 24.9685C161.541 25.6813 161.204 26.3092 160.768 26.8523C160.338 27.4011 159.781 27.831 159.097 28.1422C158.418 28.4533 157.581 28.6089 156.585 28.6089Z" fill="white"/>
<defs>
<linearGradient id="paint0_linear_2036_7" x1="62.9901" y1="-0.949219" x2="62.9901" y2="65.0146" gradientUnits="userSpaceOnUse">
<stop stop-color="#30C0AF"/>
<stop offset="1" stop-color="#175A52"/>
</linearGradient>
</defs>
</svg>
