<svg width="34" height="33" viewBox="0 0 34 33" fill="none" xmlns="http://www.w3.org/2000/svg">
<g clip-path="url(#clip0_2005_211)">
<path fill-rule="evenodd" clip-rule="evenodd" d="M9.22272 1.76855H19.2667L14.7178 6.31738H9.22272C8.68517 6.31664 8.15277 6.4221 7.6561 6.6277C7.15942 6.8333 6.70826 7.135 6.32851 7.51546C5.94805 7.8952 5.64635 8.34637 5.44075 8.84304C5.23515 9.33972 5.12969 9.87212 5.13043 10.4097V29.2441H23.9538C24.4926 29.247 25.0266 29.1433 25.5252 28.9391C26.0238 28.7349 26.4771 28.4343 26.8591 28.0543C27.2395 27.674 27.5412 27.2223 27.7468 26.7252C27.9524 26.2281 28.0578 25.6953 28.0572 25.1574V21.6517L32.606 17.1029V25.1491C32.6045 26.2839 32.3794 27.4073 31.9436 28.4551C31.5077 29.5029 30.8697 30.4545 30.066 31.2557V31.2695C28.4517 32.8855 26.2628 33.7959 23.9787 33.8012H4.05686C3.14007 33.7999 2.26129 33.4347 1.61367 32.7858C1.28632 32.4654 1.02581 32.0833 0.847225 31.6615C0.66864 31.2398 0.575534 30.7868 0.573303 30.3287V10.4069C0.579373 8.1213 1.49304 5.93169 3.11334 4.31966L3.12718 4.30583C4.74046 2.68806 6.92973 1.77653 9.21442 1.77132L9.22272 1.76855ZM15.0222 15.9546L17.2357 18.1681L19.4493 20.3817L15.8523 21.4884C13.0438 22.3545 13.0577 22.9328 13.8214 20.2295L15.0222 15.9684V15.9546Z" fill="url(#paint0_linear_2005_211)"/>
</g>
<defs>
<linearGradient id="paint0_linear_2005_211" x1="63.5634" y1="0.819336" x2="63.5634" y2="66.7832" gradientUnits="userSpaceOnUse">
<stop stop-color="#30C0AF"/>
<stop offset="1" stop-color="#175A52"/>
</linearGradient>
<clipPath id="clip0_2005_211">
<rect width="34" height="32.979" fill="white"/>
</clipPath>
</defs>
</svg>
