<svg width="20" height="20" viewBox="0 0 20 20" fill="none" xmlns="http://www.w3.org/2000/svg">
<g clip-path="url(#clip0_2005_226)">
<path d="M7.43495 15.6961C3.30452 16.9353 3.30452 13.6309 1.65234 13.2179M13.2176 18.1744V14.9774C13.2485 14.5835 13.1953 14.1875 13.0614 13.8158C12.9276 13.444 12.7161 13.1051 12.441 12.8214C15.035 12.5322 17.761 11.5492 17.761 7.03875C17.7608 5.88539 17.3172 4.77626 16.5219 3.94092C16.8985 2.93186 16.8719 1.81652 16.4476 0.826577C16.4476 0.826577 15.4728 0.537446 13.2176 2.04919C11.3242 1.53604 9.32834 1.53604 7.43495 2.04919C5.17974 0.537446 4.20495 0.826577 4.20495 0.826577C3.78065 1.81652 3.75403 2.93186 4.1306 3.94092C3.32941 4.78246 2.8853 5.90161 2.89147 7.06353C2.89147 11.5409 5.61756 12.524 8.21147 12.8461C7.93969 13.127 7.73008 13.4619 7.59629 13.8291C7.46251 14.1963 7.40753 14.5876 7.43495 14.9774V18.1744" stroke="white" stroke-width="1.65217" stroke-linecap="round" stroke-linejoin="round"/>
</g>
<defs>
<clipPath id="clip0_2005_226">
<rect width="19.8261" height="19.8261" fill="white"/>
</clipPath>
</defs>
</svg>
