<svg width="20" height="20" viewBox="0 0 20 20" fill="none" xmlns="http://www.w3.org/2000/svg">
<g clip-path="url(#clip0_2005_222)">
<path d="M13.2175 6.60864C14.5321 6.60864 15.7928 7.13085 16.7223 8.06037C17.6518 8.9899 18.174 10.2506 18.174 11.5652V17.3478H14.8697V11.5652C14.8697 11.127 14.6956 10.7067 14.3858 10.3969C14.0759 10.0871 13.6557 9.91299 13.2175 9.91299C12.7793 9.91299 12.3591 10.0871 12.0492 10.3969C11.7394 10.7067 11.5653 11.127 11.5653 11.5652V17.3478H8.26099V11.5652C8.26099 10.2506 8.78319 8.9899 9.71272 8.06037C10.6422 7.13085 11.903 6.60864 13.2175 6.60864Z" stroke="white" stroke-width="1.65217" stroke-linecap="round" stroke-linejoin="round"/>
<path d="M4.95645 7.43481H1.6521V17.3479H4.95645V7.43481Z" stroke="white" stroke-width="1.65217" stroke-linecap="round" stroke-linejoin="round"/>
<path d="M3.30427 4.95645C4.21674 4.95645 4.95645 4.21674 4.95645 3.30427C4.95645 2.3918 4.21674 1.6521 3.30427 1.6521C2.3918 1.6521 1.6521 2.3918 1.6521 3.30427C1.6521 4.21674 2.3918 4.95645 3.30427 4.95645Z" stroke="white" stroke-width="1.65217" stroke-linecap="round" stroke-linejoin="round"/>
</g>
<defs>
<clipPath id="clip0_2005_222">
<rect width="19.8261" height="19.8261" fill="white"/>
</clipPath>
</defs>
</svg>
